<svg xmlns="http://www.w3.org/2000/svg" viewBox="0 0 24 24">
  <g id="path">
    <path d="M12.7072 11.2071C13.0977 10.8166 13.0977 10.1834 12.7072 9.79289C12.3167 9.40237 11.6835 9.40237 11.293 9.79289C10.9298 10.156 10.504 10.7882 10.3756 11.5768C10.2371 12.4275 10.4625 13.3766 11.293 14.2071C11.6835 14.5976 12.3167 14.5976 12.7072 14.2071C13.0977 13.8166 13.0977 13.1834 12.7072 12.7929C12.3377 12.4234 12.3131 12.1225 12.3496 11.8982C12.3962 11.6118 12.5704 11.344 12.7072 11.2071Z"/>
    <path d="M18.0001 10C17.4478 10 17.0001 10.4477 17.0001 11C17.0001 11.5523 17.4478 12 18.0001 12C18.5524 12 19.0011 11.5523 19.0011 11C19.0011 10.4477 18.5524 10 18.0001 10Z"/>
    <path fill-rule="evenodd" clip-rule="evenodd" d="M4.54024 13.4257C3.82154 14.218 3.23636 14.9669 2.82414 15.5665C2.51125 16.0216 1.88867 16.1369 1.43356 15.824C0.978459 15.5112 0.863166 14.8886 1.17605 14.4335C1.6499 13.7442 2.31649 12.8932 3.1336 12C2.31649 11.1068 1.6499 10.2558 1.17605 9.56653C0.863166 9.11142 0.978459 8.48884 1.43356 8.17596C1.88867 7.86307 2.51125 7.97837 2.82414 8.43347C3.23636 9.03307 3.82154 9.78201 4.54024 10.5743C5.03482 10.1099 5.56321 9.65105 6.1197 9.21374C8.31353 7.48971 11.0729 6 14.0001 6C14.9991 6 15.91 6.11369 16.737 6.31531C18.7537 6.80701 20.2958 8.15819 21.2986 9.29971C21.8081 9.87958 22.1996 10.4295 22.4647 10.8357C22.5976 11.0393 22.6997 11.2084 22.7699 11.329C22.805 11.3893 22.8322 11.4377 22.8514 11.4723L23.1306 12L22.8514 12.5277C22.8322 12.5623 22.805 12.6107 22.7699 12.671C22.6997 12.7916 22.5976 12.9607 22.4647 13.1643C22.1996 13.5705 21.8081 14.1204 21.2986 14.7003C20.2958 15.8418 18.7537 17.193 16.737 17.6847C15.91 17.8863 14.9991 18 14.0001 18C11.0729 18 8.31353 16.5103 6.1197 14.7863C5.56321 14.3489 5.03482 13.8901 4.54024 13.4257ZM7.35548 13.2137C6.85933 12.8238 6.38694 12.4145 5.94367 12C6.38694 11.5855 6.85933 11.1762 7.35548 10.7863C9.40332 9.17696 11.7273 8 14.0001 8C14.3385 8 14.6618 8.01538 14.9704 8.04421C13.646 11.0707 14.2017 14.0539 14.9901 15.9539C14.6755 15.984 14.3457 16 14.0001 16C11.7273 16 9.40332 14.823 7.35548 13.2137ZM16.9769 15.5093C16.2513 13.9751 15.6161 11.2099 16.9712 8.4884C18.1033 8.94852 19.0624 9.78455 19.7961 10.6197C20.2293 11.1127 20.5641 11.5829 20.7898 11.9287C20.8057 11.9531 20.8211 11.9769 20.8359 12C20.8211 12.0231 20.8057 12.0469 20.7898 12.0713C20.5641 12.4171 20.2293 12.8873 19.7961 13.3803C19.0636 14.2141 18.1065 15.0487 16.9769 15.5093Z"/>
    <path fill-rule="evenodd" clip-rule="evenodd" d="M12.7072 11.2071C13.0977 10.8166 13.0977 10.1834 12.7072 9.79289C12.3167 9.40237 11.6835 9.40237 11.293 9.79289C10.9298 10.156 10.504 10.7882 10.3756 11.5768C10.2371 12.4275 10.4625 13.3766 11.293 14.2071C11.6835 14.5976 12.3167 14.5976 12.7072 14.2071C13.0977 13.8166 13.0977 13.1834 12.7072 12.7929C12.3377 12.4234 12.3131 12.1225 12.3496 11.8982C12.3962 11.6118 12.5704 11.344 12.7072 11.2071ZM17.0001 11C17.0001 10.4477 17.4478 10 18.0001 10C18.5524 10 19.0011 10.4477 19.0011 11C19.0011 11.5523 18.5524 12 18.0001 12C17.4478 12 17.0001 11.5523 17.0001 11Z"/>
  </g>
</svg>