<svg xmlns="http://www.w3.org/2000/svg" viewBox="0 0 24 24">
  <path id="path" fill-rule="evenodd" clip-rule="evenodd" d="M14 5C14 4.44772 14.4477 4 15 4C17.7614 4 20 6.23858 20 9C20 11.7614 17.7614 14 15 14C14.4477 14 14 13.5523 14 13C14 12.4477 14.4477 12 15 12C16.6569 12 18 10.6569 18 9C18 7.34315 16.6569 6 15 6C14.4477 6 14 5.55228 14 5ZM4 20C4 19.3338 4.40506 18.6083 5.31206 18.0036C6.21207 17.4036 7.51303 17 9 17C10.487 17 11.7879 17.4036 12.6879 18.0036C13.5949 18.6083 14 19.3338 14 20C14 20.5523 14.4477 21 15 21C15.5523 21 16 20.5523 16 20C16 18.457 15.0619 17.1826 13.7973 16.3395C12.5258 15.4918 10.8267 15 9 15C7.17326 15 5.47422 15.4918 4.20266 16.3395C2.93809 17.1826 2 18.457 2 20C2 20.5523 2.44772 21 3 21C3.55228 21 4 20.5523 4 20ZM17.2294 15.2543C16.6918 15.1276 16.1533 15.4607 16.0267 15.9982C15.9 16.5358 16.2331 17.0743 16.7706 17.2009C18.9276 17.7092 20 18.9574 20 20C20 20.5523 20.4477 21 21 21C21.5523 21 22 20.5523 22 20C22 17.5594 19.7332 15.8442 17.2294 15.2543ZM6 9C6 7.34315 7.34315 6 9 6C10.6569 6 12 7.34315 12 9C12 10.6569 10.6569 12 9 12C7.34315 12 6 10.6569 6 9ZM9 4C6.23858 4 4 6.23858 4 9C4 11.7614 6.23858 14 9 14C11.7614 14 14 11.7614 14 9C14 6.23858 11.7614 4 9 4Z"/>
</svg>